# xmcd
#
# Track frame offsets:
#	150
#	17235
#	33212
#	54200
#	71550
#	87686
#	105267
#	123266
#	140084
#	159279
#	175838
#	192606
#	209746
#	226261
#	244373
#	260219
#	274463
#	290261
#	307732
#	326629
#
# Disc length: 4592 seconds
#
# Revision: 1
# Processed by: cddbd v1.5.2PL0 Copyright (c) Steve Scherf et al.
# Submitted via: dBpowerAMP V4.0
#
DISCID=2a11ee14
DTITLE=Various Artist - Hott Urban Volume 18 Can
DYEAR=2016
DGENRE=Urban
TTITLE0=Bruno Mars - 24k Magic
TTITLE1=John Legend - Love Me Now
TTITLE2=Schoolboy Q ft. Miguel And Justine Sky - Overtime
TTITLE3=Weeknd, The ft. Daft Punk - Starboy
TTITLE4=Alicia Keys ft. A$ap Rocky - Blended Family (What You Do For Love)
TTITLE5=Kevin Hart ft. Trey Songz - Push It On Me
TTITLE6=Anthony Hamilton - What I'm Feeling
TTITLE7=Kent Jones - Alright
TTITLE8=Rayy Dubb - You Lied
TTITLE9=Bibi Bourelly - Ballin
TTITLE10=Belly - Ballerina
TTITLE11=Candice Boyd ft. French Montana - Damn Good Time
TTITLE12=BDB - Run
TTITLE13=Kevin Hart ft. Migos And T.I. - Baller Alert
TTITLE14=Amine - Caroline
TTITLE15=Kanye West - Fade
TTITLE16=Ro James - Already Knew That
TTITLE17=Jeremih ft. Stefflon Don, Krept And Konan - London
TTITLE18=Gucci Mane ft. Travi$ Scott - Last Time
TTITLE19=Kevin Ross - Long Song Away
EXTD=
EXTT0=
EXTT1=
EXTT2=
EXTT3=
EXTT4=
EXTT5=
EXTT6=
EXTT7=
EXTT8=
EXTT9=
EXTT10=
EXTT11=
EXTT12=
EXTT13=
EXTT14=
EXTT15=
EXTT16=
EXTT17=
EXTT18=
EXTT19=
PLAYORDER=
